<?xml version="1.0" encoding="UTF-8"?>
<svg width="1200px" height="1200px" viewBox="0 0 1200 1200" version="1.1" xmlns="http://www.w3.org/2000/svg" xmlns:xlink="http://www.w3.org/1999/xlink">
    <!-- Generator: Sketch 61.2 (89653) - https://sketch.com -->
    <title>logo</title>
    <desc>Created with Sketch.</desc>
    <defs>
        <circle id="path-1" cx="600.159121" cy="600" r="600"></circle>
        <circle id="path-3" cx="600.159121" cy="600" r="600"></circle>
    </defs>
    <g id="logo" stroke="none" stroke-width="1" fill="none" fill-rule="evenodd">
        <g id="Group-Copy-4" transform="translate(-1.000000, 0.000000)">
            <mask id="mask-2" fill="white">
                <use xlink:href="#path-1"></use>
            </mask>
            <g id="Oval-Copy"></g>
            <mask id="mask-4" fill="white">
                <use xlink:href="#path-3"></use>
            </mask>
            <use id="Oval-Copy-2" fill="#212057" xlink:href="#path-3"></use>
            <g id="Group-2" mask="url(#mask-4)">
                <g transform="translate(-11.000000, 239.664168)">
                    <path d="M611,459.54413 C411.791524,186.74253 252.35908,34.0731227 132.702666,1.53590797 C18.5830614,-4.28899039 -21.9324219,117.07321 11.1562159,365.622508 C174.296954,342.099955 374.244882,466.671063 611,739.335832 L611,459.54413 Z" id="Path" fill="#D15430"></path>
                    <path d="M1222,459.54413 C1022.79152,186.74253 863.35908,34.0731227 743.702666,1.53590797 C629.583061,-4.28899039 589.067578,117.07321 622.156216,365.622508 C785.296954,342.099955 985.244882,466.671063 1222,739.335832 L1222,459.54413 Z" id="Path-Copy" fill="#73281B" transform="translate(916.500000, 370.335832) scale(-1, 1) translate(-916.500000, -370.335832) "></path>
                    <path d="M611,509.265075 C385.25002,244.332192 201.985678,121.702399 61.2069758,141.375696 L35,228.212448 C178.322187,196.801264 370.322187,318.175725 611,592.335832 L611,509.265075 Z" id="Path-2" fill="#D5663F"></path>
                    <path d="M1187,509.265075 C961.25002,244.332192 777.985678,121.702399 637.206976,141.375696 L611,228.212448 C754.322187,196.801264 946.322187,318.175725 1187,592.335832 L1187,509.265075 Z" id="Path-2-Copy" fill="#C5542C" transform="translate(899.000000, 365.835832) scale(-1, 1) translate(-899.000000, -365.835832) "></path>
                    <path d="M611,459.374134 C411.604968,186.239989 252.023216,33.3844784 132.254746,0.807600792 C18.0282694,-5.02439811 -8.24001818,43.2149185 53.4498829,145.525551 C212.949148,137.879096 398.799187,260.14919 611,512.335832 L611,459.374134 Z" id="Path" fill="#FFFFFF"></path>
                    <path d="M1201,459.374134 C1001.60497,186.239989 842.023216,33.3844784 722.254746,0.807600792 C608.028269,-5.02439811 581.759982,43.2149185 643.449883,145.525551 C802.949148,137.879096 988.799187,260.14919 1201,512.335832 L1201,459.374134 Z" id="Path-Copy-2" fill="#FFFFFF" transform="translate(906.000000, 256.335832) scale(-1, 1) translate(-906.000000, -256.335832) "></path>
                </g>
            </g>
        </g>
    </g>
</svg>